ply
format ascii 1.0
comment Created by Blender 2.71 (sub 0) - www.blender.org, source file: 'Rock.blend'
element vertex 480
property float x
property float y
property float z
property float nx
property float ny
property float nz
property float s
property float t
element face 384
property list uchar uint vertex_indices
end_header
0.193748 1.479270 -1.441481 -0.992553 -0.062868 -0.104129 0.500000 0.500000
0.230440 1.290572 -1.438976 -0.981872 -0.188940 0.012970 0.620983 0.500000
0.276516 1.297949 -1.311829 -0.950499 -0.247902 0.187231 0.620983 0.620983
0.233877 1.478399 -1.303837 -0.980041 -0.077670 0.182928 0.500000 0.620983
0.275679 1.294229 -1.180017 -0.934202 -0.292306 0.204443 0.620983 0.741966
0.234523 1.478994 -1.169628 -0.978912 -0.060884 0.194983 0.500000 0.741966
0.339527 1.295755 -1.045179 -0.816706 -0.275307 0.507096 0.620983 0.862949
0.284716 1.480636 -1.023303 -0.842891 -0.062990 0.534349 0.500000 0.862949
0.440310 1.290231 -0.926152 -0.710074 -0.180792 0.680471 0.620983 0.983932
0.417902 1.476391 -0.907687 -0.631581 -0.020814 0.775018 0.500000 0.983932
0.273011 1.098491 -1.436864 -0.959716 -0.245033 0.137364 0.741966 0.500000
0.328936 1.121016 -1.316305 -0.934904 -0.277169 0.221503 0.741966 0.620983
0.339085 1.123057 -1.190025 -0.908597 -0.313578 0.275857 0.741966 0.741966
0.402511 1.123411 -1.066401 -0.780419 -0.363384 0.508805 0.741966 0.862949
0.466723 1.105843 -0.943657 -0.711386 -0.413709 0.568072 0.741966 0.983932
0.349167 0.909007 -1.440518 -0.917325 -0.368572 0.150456 0.862949 0.500000
0.380457 0.927374 -1.310024 -0.923338 -0.320627 0.211188 0.862949 0.620983
0.388584 0.937358 -1.181615 -0.805933 -0.361827 0.468490 0.862949 0.741966
0.472590 0.975429 -1.089161 -0.554430 -0.513382 0.654988 0.862949 0.862949
0.556578 0.995712 -1.006886 -0.534745 -0.703665 0.467849 0.862949 0.983932
0.438077 0.747690 -1.440290 -0.763329 -0.645802 -0.015107 0.983932 0.500000
0.428921 0.741009 -1.298333 -0.806604 -0.554521 0.204566 0.983932 0.620983
0.478439 0.790893 -1.186608 -0.589984 -0.445082 0.673635 0.983932 0.741966
0.577588 0.884199 -1.121217 -0.363231 -0.492477 0.790857 0.983932 0.862949
0.631930 0.937986 -1.061579 -0.473983 -0.717032 0.511002 0.983932 0.983932
0.231660 1.670157 -1.308605 -0.966765 0.114261 0.228645 0.379018 0.620983
0.201321 1.676255 -1.446075 -0.950774 0.163915 -0.262917 0.379018 0.500000
0.231784 1.880609 -1.317387 -0.915281 0.380230 0.132786 0.258035 0.620983
0.273337 1.857423 -1.442238 -0.791925 0.418256 -0.444807 0.258035 0.500000
0.338920 2.038760 -1.322248 -0.762261 0.646382 -0.033631 0.137052 0.620983
0.408697 1.991424 -1.436443 -0.633229 0.591113 -0.499527 0.137052 0.500000
0.487006 2.162630 -1.322733 -0.693716 0.702445 -0.159062 0.016069 0.620983
0.536926 2.112642 -1.436216 -0.608142 0.646962 -0.459914 0.016069 0.500000
0.276788 1.661952 -1.175407 -0.944792 0.189062 0.267525 0.379018 0.741966
0.327312 1.836879 -1.190578 -0.825617 0.356822 0.437056 0.258035 0.741966
0.395572 2.003756 -1.201080 -0.699973 0.509018 0.500900 0.137052 0.741966
0.504189 2.149978 -1.203172 -0.669424 0.601154 0.436384 0.016069 0.741966
0.295345 1.670592 -1.028230 -0.837367 0.232704 0.494583 0.379018 0.862949
0.364386 1.832237 -1.059489 -0.772027 0.438429 0.460128 0.258035 0.862949
0.470638 1.959257 -1.100971 -0.724082 0.507035 0.467544 0.137052 0.862949
0.553694 2.101407 -1.104051 -0.707297 0.547777 0.446791 0.016069 0.862949
0.431571 1.659300 -0.921845 -0.569079 0.200079 0.797540 0.379018 0.983932
0.464589 1.830180 -0.945538 -0.607349 0.347942 0.714164 0.258035 0.983932
0.524032 1.976600 -0.989130 -0.738090 0.430708 0.519272 0.137052 0.983932
0.573407 2.079887 -1.019820 -0.784204 0.538682 0.307871 0.016069 0.983932
0.288233 1.657583 -1.563576 -0.827326 0.231300 -0.511826 0.379018 0.379018
0.261268 1.479495 -1.565428 -0.884121 0.003296 -0.467238 0.500000 0.379018
0.347567 1.651093 -1.685515 -0.934111 0.249977 -0.254738 0.379018 0.258035
0.327592 1.479606 -1.691615 -0.954344 0.018799 -0.298074 0.500000 0.258035
0.354857 1.655399 -1.834463 -0.850490 0.148350 -0.504624 0.379018 0.137052
0.348491 1.478934 -1.837975 -0.779687 -0.032899 -0.625263 0.500000 0.137052
0.489380 1.654548 -1.904925 -0.481460 -0.021149 -0.876186 0.379018 0.016069
0.512986 1.482804 -1.888755 -0.400678 -0.068514 -0.913633 0.500000 0.016069
0.365216 1.817766 -1.553719 -0.747154 0.453291 -0.486068 0.258035 0.379018
0.403022 1.805246 -1.669825 -0.841517 0.481338 -0.245155 0.258035 0.258035
0.422894 1.812706 -1.798773 -0.861202 0.430982 -0.269265 0.258035 0.137052
0.471203 1.841843 -1.918389 -0.674184 0.288552 -0.679830 0.258035 0.016069
0.456650 1.962668 -1.545925 -0.704550 0.577563 -0.412305 0.137052 0.379018
0.491554 1.941954 -1.650847 -0.753258 0.588244 -0.294168 0.137052 0.258035
0.524994 1.934073 -1.755330 -0.786279 0.609333 -0.102054 0.137052 0.137052
0.536293 1.981962 -1.872081 -0.691183 0.613422 -0.382000 0.137052 0.016069
0.559610 2.090606 -1.543647 -0.646992 0.672933 -0.358470 0.016069 0.379018
0.588506 2.062074 -1.644106 -0.672781 0.670766 -0.312082 0.016069 0.258035
0.611352 2.041106 -1.742367 -0.707785 0.697562 -0.111362 0.016069 0.137052
0.608083 2.049011 -1.825447 -0.651143 0.740135 -0.167791 0.016069 0.016069
0.274516 1.295380 -1.562916 -0.918424 -0.099551 -0.382763 0.620983 0.379018
0.291389 1.095545 -1.562871 -0.946623 -0.171545 -0.272805 0.741966 0.379018
0.326273 0.897505 -1.571579 -0.876186 -0.410199 -0.252907 0.862949 0.379018
0.431532 0.745353 -1.565744 -0.668020 -0.689871 -0.278878 0.983932 0.379018
0.335202 1.301089 -1.687566 -0.935026 -0.084384 -0.344310 0.620983 0.258035
0.346991 1.110779 -1.690723 -0.848415 -0.207862 -0.486801 0.741966 0.258035
0.386738 0.940448 -1.685460 -0.645619 -0.383007 -0.660634 0.862949 0.258035
0.504378 0.812038 -1.668202 -0.502426 -0.508774 -0.699057 0.983932 0.258035
0.366788 1.297431 -1.832587 -0.724845 -0.111820 -0.679739 0.620983 0.137052
0.405065 1.126247 -1.817815 -0.626667 -0.295572 -0.721030 0.741966 0.137052
0.506064 1.009576 -1.764620 -0.481979 -0.457472 -0.747246 0.862949 0.137052
0.588054 0.892565 -1.753738 -0.461654 -0.416364 -0.783227 0.983932 0.137052
0.527757 1.311995 -1.880593 -0.397412 -0.093539 -0.912839 0.620983 0.016069
0.545057 1.153378 -1.874291 -0.392834 -0.268777 -0.879421 0.741966 0.016069
0.585816 1.022384 -1.854046 -0.396222 -0.448714 -0.801019 0.862949 0.016069
0.635118 0.940789 -1.813825 -0.421461 -0.460219 -0.781365 0.983932 0.016069
1.172174 2.397133 -1.439020 -0.001465 0.991943 0.126560 0.500000 0.500000
0.987621 2.388088 -1.439795 -0.125553 0.985778 -0.111606 0.620983 0.500000
0.986928 2.355575 -1.314043 0.007111 0.970885 0.239387 0.620983 0.620983
1.171350 2.333635 -1.315914 0.018189 0.974670 0.222846 0.500000 0.620983
0.993616 2.316637 -1.193440 -0.008820 0.907437 0.420057 0.620983 0.741966
1.174625 2.328534 -1.186742 -0.019562 0.929258 0.368877 0.500000 0.741966
1.002060 2.246105 -1.077056 -0.005280 0.883694 0.467971 0.620983 0.862949
1.172988 2.246400 -1.076478 0.047304 0.814173 0.578631 0.500000 0.862949
0.995911 2.193772 -0.946214 0.025513 0.790521 0.611866 0.620983 0.983932
1.177523 2.170763 -0.958377 0.174780 0.727928 0.662954 0.500000 0.983932
0.808533 2.344428 -1.438375 -0.322581 0.870266 -0.372234 0.741966 0.500000
0.789210 2.375681 -1.315247 -0.222541 0.971709 0.078799 0.741966 0.620983
0.806891 2.310421 -1.195049 -0.121982 0.869106 0.479293 0.741966 0.741966
0.822222 2.235263 -1.082633 -0.123142 0.898556 0.421186 0.741966 0.862949
0.803857 2.203199 -0.942843 -0.149754 0.785821 0.600024 0.741966 0.983932
0.666030 2.230220 -1.434473 -0.538224 0.701224 -0.467513 0.862949 0.500000
0.617152 2.307110 -1.315039 -0.559954 0.823969 -0.086337 0.862949 0.620983
0.631907 2.266854 -1.194726 -0.462111 0.763543 0.450972 0.862949 0.741966
0.660165 2.202306 -1.088916 -0.446669 0.787194 0.425153 0.862949 0.862949
0.642048 2.153848 -0.969289 -0.496109 0.698416 0.515763 0.862949 0.983932
0.536926 2.112642 -1.436216 -0.608142 0.646962 -0.459914 0.983932 0.500000
0.487006 2.162630 -1.322733 -0.693716 0.702445 -0.159062 0.983932 0.620983
0.504189 2.149978 -1.203172 -0.669424 0.601154 0.436384 0.983932 0.741966
0.553694 2.101407 -1.104051 -0.707297 0.547777 0.446791 0.983932 0.862949
0.573407 2.079887 -1.019820 -0.784204 0.538682 0.307871 0.983932 0.983932
1.347954 2.340833 -1.313349 0.128666 0.978851 0.158849 0.379018 0.620983
1.353858 2.363140 -1.438289 0.181921 0.970489 0.158116 0.379018 0.500000
1.522995 2.305483 -1.315488 0.425459 0.894467 0.137333 0.258035 0.620983
1.527936 2.319914 -1.435497 0.457289 0.887265 0.060213 0.258035 0.500000
1.665580 2.202277 -1.324133 0.525407 0.848201 0.066713 0.137052 0.620983
1.664802 2.205223 -1.437138 0.604022 0.793908 -0.069369 0.137052 0.500000
1.833368 2.135323 -1.319831 0.624622 0.778466 0.061892 0.016069 0.620983
1.794447 2.099757 -1.436271 0.612690 0.764519 -0.200171 0.016069 0.500000
1.349733 2.340561 -1.183754 0.132145 0.915525 0.379864 0.379018 0.741966
1.513168 2.276926 -1.197546 0.409772 0.822108 0.395184 0.258035 0.741966
1.661386 2.185287 -1.213245 0.466659 0.783227 0.410749 0.137052 0.741966
1.807339 2.113533 -1.212485 0.584094 0.628193 0.513962 0.016069 0.741966
1.342597 2.236575 -1.080505 0.162847 0.731437 0.662130 0.379018 0.862949
1.498983 2.198442 -1.093884 0.344768 0.690695 0.635639 0.258035 0.862949
1.632879 2.128388 -1.119788 0.456465 0.651906 0.605487 0.137052 0.862949
1.747028 2.053598 -1.128963 0.581286 0.519974 0.625843 0.016069 0.862949
1.341488 2.131813 -0.981336 0.212226 0.640339 0.738151 0.379018 0.983932
1.498572 2.102725 -0.996069 0.260567 0.645344 0.718040 0.258035 0.983932
1.628789 2.059277 -1.029482 0.468825 0.654286 0.593341 0.137052 0.983932
1.702000 2.008093 -1.070040 0.625233 0.587848 0.513291 0.016069 0.983932
1.357171 2.389545 -1.569031 0.232948 0.963866 -0.129154 0.379018 0.379018
1.172723 2.391395 -1.565874 -0.098636 0.979827 -0.173772 0.500000 0.379018
1.354685 2.348933 -1.704168 0.211798 0.824091 -0.525346 0.379018 0.258035
1.169325 2.349908 -1.699726 -0.109348 0.857814 -0.502182 0.500000 0.258035
1.340088 2.233517 -1.796332 0.145970 0.602069 -0.784967 0.379018 0.137052
1.171992 2.235504 -1.795269 0.000366 0.650380 -0.759575 0.500000 0.137052
1.329137 2.099564 -1.866541 0.143712 0.468642 -0.871609 0.379018 0.016069
1.170036 2.129904 -1.889369 0.089846 0.537736 -0.838282 0.500000 0.016069
1.522872 2.311479 -1.556087 0.516037 0.836787 -0.182897 0.258035 0.379018
1.508130 2.258621 -1.672907 0.497513 0.753838 -0.429121 0.258035 0.258035
1.506512 2.200102 -1.789581 0.350108 0.657125 -0.667501 0.258035 0.137052
1.485642 2.079581 -1.854835 0.132664 0.498795 -0.856471 0.258035 0.016069
1.661584 2.204057 -1.547936 0.632984 0.736534 -0.238289 0.137052 0.379018
1.637560 2.160640 -1.649706 0.615192 0.695212 -0.371685 0.137052 0.258035
1.631409 2.128328 -1.762149 0.576952 0.657399 -0.484664 0.137052 0.137052
1.626955 2.063674 -1.850010 0.428510 0.584674 -0.688803 0.137052 0.016069
1.782409 2.088713 -1.543583 0.637867 0.728202 -0.250557 0.016069 0.379018
1.756069 2.060972 -1.643444 0.618885 0.672689 -0.405469 0.016069 0.258035
1.720699 2.025845 -1.732901 0.652364 0.610553 -0.448958 0.016069 0.137052
1.695642 2.004904 -1.806147 0.704978 0.551164 -0.446272 0.016069 0.016069
0.999150 2.327164 -1.555462 -0.287790 0.905026 -0.313181 0.620983 0.379018
0.835442 2.273088 -1.549559 -0.408307 0.818262 -0.404553 0.741966 0.379018
0.689507 2.190262 -1.545129 -0.541765 0.748283 -0.382794 0.862949 0.379018
0.559610 2.090606 -1.543647 -0.646992 0.672933 -0.358470 0.983932 0.379018
0.998173 2.309016 -1.684980 -0.287515 0.882992 -0.370983 0.620983 0.258035
0.847272 2.230823 -1.662753 -0.425459 0.865932 -0.262917 0.741966 0.258035
0.708700 2.155365 -1.649946 -0.553575 0.789300 -0.265511 0.862949 0.258035
0.588506 2.062074 -1.644106 -0.672781 0.670766 -0.312082 0.983932 0.258035
1.001800 2.238441 -1.796306 -0.143162 0.758293 -0.635945 0.620983 0.137052
0.837167 2.211725 -1.786222 -0.336619 0.830714 -0.443342 0.741966 0.137052
0.709669 2.137057 -1.760066 -0.538926 0.806604 -0.242653 0.862949 0.137052
0.611352 2.041106 -1.742367 -0.707785 0.697562 -0.111362 0.983932 0.137052
1.002987 2.129573 -1.888524 -0.039430 0.590258 -0.806238 0.620983 0.016069
0.838909 2.118834 -1.877472 -0.177465 0.654714 -0.734703 0.741966 0.016069
0.689063 2.098378 -1.857354 -0.413465 0.753105 -0.511704 0.862949 0.016069
0.608083 2.049011 -1.825447 -0.651143 0.740135 -0.167791 0.983932 0.016069
2.085798 1.482007 -1.435529 0.979858 -0.151891 0.129398 0.500000 0.500000
2.129416 1.676318 -1.433305 0.982696 0.116123 0.144169 0.620983 0.500000
2.040746 1.656084 -1.313973 0.827174 0.154057 0.540361 0.620983 0.620983
2.061741 1.482241 -1.308043 0.926237 -0.056215 0.372692 0.500000 0.620983
1.959678 1.643024 -1.205568 0.891781 0.293863 0.343974 0.620983 0.741966
2.010480 1.482971 -1.189088 0.956267 0.021882 0.291635 0.500000 0.741966
1.966836 1.671120 -1.055886 0.921049 0.339793 0.190100 0.620983 0.862949
1.976347 1.493922 -1.052837 0.960875 0.003479 0.276925 0.500000 0.862949
1.908857 1.696441 -0.900450 0.626576 0.292489 0.722373 0.620983 0.983932
1.908961 1.497065 -0.914498 0.633778 0.003754 0.773461 0.500000 0.983932
2.075800 1.864381 -1.433537 0.875729 0.481124 0.039735 0.741966 0.500000
1.994920 1.830101 -1.320507 0.781091 0.294412 0.550615 0.741966 0.620983
1.913544 1.799111 -1.216534 0.809595 0.314463 0.495621 0.741966 0.741966
1.856780 1.791054 -1.112323 0.836818 0.485427 0.253059 0.741966 0.862949
1.820392 1.832505 -0.969949 0.645375 0.528886 0.551103 0.741966 0.983932
1.929380 1.988516 -1.435301 0.722770 0.670217 -0.168371 0.862949 0.500000
1.950840 2.008796 -1.319771 0.806055 0.520463 0.281686 0.862949 0.620983
1.869944 1.959360 -1.219612 0.746147 0.304056 0.592242 0.862949 0.741966
1.812106 1.931261 -1.126825 0.775170 0.391614 0.495682 0.862949 0.862949
1.752687 1.933718 -1.026575 0.695730 0.534165 0.480209 0.862949 0.983932
1.794447 2.099757 -1.436271 0.612690 0.764519 -0.200171 0.983932 0.500000
1.833368 2.135323 -1.319831 0.624622 0.778466 0.061892 0.983932 0.620983
1.807339 2.113533 -1.212485 0.584094 0.628193 0.513962 0.983932 0.741966
1.747028 2.053598 -1.128963 0.581286 0.519974 0.625843 0.983932 0.862949
1.702000 2.008093 -1.070040 0.625233 0.587848 0.513291 0.983932 0.983932
2.016494 1.304381 -1.316997 0.957610 -0.134709 0.254494 0.379018 0.620983
2.057298 1.296283 -1.439791 0.983978 -0.149205 0.097507 0.379018 0.500000
2.002827 1.119826 -1.315811 0.964263 -0.174596 0.199225 0.258035 0.620983
2.033982 1.113862 -1.439885 0.968230 -0.248299 0.028687 0.258035 0.500000
1.958324 0.935403 -1.314611 0.923856 -0.329539 0.194525 0.137052 0.620983
1.962470 0.933436 -1.436585 0.932890 -0.347667 -0.093966 0.137052 0.500000
1.890820 0.758092 -1.315024 0.824427 -0.533097 0.189917 0.016069 0.620983
1.902660 0.748323 -1.441609 0.798486 -0.571703 -0.188513 0.016069 0.500000
1.990757 1.305117 -1.193070 0.958403 -0.108646 0.263802 0.379018 0.741966
1.981894 1.113619 -1.188737 0.940092 -0.183172 0.287484 0.258035 0.741966
1.934300 0.948995 -1.194977 0.841060 -0.374706 0.390088 0.137052 0.741966
1.842881 0.806792 -1.198977 0.787225 -0.442244 0.429731 0.016069 0.741966
1.955039 1.303127 -1.063340 0.930876 -0.119266 0.345256 0.379018 0.862949
1.933961 1.120239 -1.070587 0.863369 -0.259743 0.432539 0.258035 0.862949
1.875125 0.977150 -1.091415 0.744255 -0.426618 0.513871 0.137052 0.862949
1.792536 0.858912 -1.099404 0.789453 -0.388531 0.475112 0.016069 0.862949
1.903961 1.304829 -0.916710 0.715812 -0.065249 0.695212 0.379018 0.983932
1.861604 1.123354 -0.952575 0.761376 -0.286782 0.581378 0.258035 0.983932
1.803583 0.983018 -0.999782 0.767205 -0.409925 0.493271 0.137052 0.983932
1.766475 0.887590 -1.026502 0.836848 -0.344127 0.425703 0.016069 0.983932
2.049054 1.297505 -1.562172 0.941588 -0.144932 -0.303964 0.379018 0.379018
2.078633 1.483066 -1.565386 0.935789 -0.155492 -0.316385 0.500000 0.379018
1.977327 1.307081 -1.676398 0.811151 -0.123997 -0.571490 0.379018 0.258035
2.006455 1.482005 -1.686401 0.801111 -0.126377 -0.584979 0.500000 0.258035
1.895033 1.313368 -1.778703 0.687277 -0.101291 -0.719291 0.379018 0.137052
1.917262 1.481112 -1.789467 0.675771 -0.109470 -0.728904 0.500000 0.137052
1.787730 1.319743 -1.860872 0.495132 -0.105411 -0.862362 0.379018 0.016069
1.803045 1.479439 -1.873102 0.516587 -0.098453 -0.850520 0.500000 0.016069
2.022013 1.122287 -1.562640 0.897732 -0.286325 -0.334758 0.258035 0.379018
1.956053 1.140327 -1.679313 0.792016 -0.263680 -0.550554 0.258035 0.258035
1.881921 1.151547 -1.782679 0.667226 -0.229469 -0.708579 0.258035 0.137052
1.774692 1.166625 -1.854533 0.444044 -0.209021 -0.871273 0.258035 0.016069
1.931068 0.959485 -1.553472 0.811670 -0.398450 -0.427076 0.137052 0.379018
1.879671 0.995112 -1.666162 0.682913 -0.453230 -0.572863 0.137052 0.258035
1.823180 1.021758 -1.761238 0.549608 -0.474837 -0.687307 0.137052 0.137052
1.733638 1.044026 -1.825690 0.367595 -0.434187 -0.822382 0.137052 0.016069
1.860834 0.789378 -1.557391 0.671865 -0.513382 -0.533860 0.016069 0.379018
1.786885 0.865250 -1.656613 0.533311 -0.496323 -0.684988 0.016069 0.258035
1.727981 0.925869 -1.736791 0.428816 -0.542528 -0.722312 0.016069 0.137052
1.683618 0.969779 -1.789524 0.343760 -0.538560 -0.769250 0.016069 0.016069
2.106710 1.665849 -1.570626 0.904508 0.135044 -0.404462 0.620983 0.379018
2.007667 1.834278 -1.555034 0.754784 0.487259 -0.439131 0.741966 0.379018
1.909405 1.975861 -1.551130 0.683218 0.644063 -0.344005 0.862949 0.379018
1.782409 2.088713 -1.543583 0.637867 0.728202 -0.250557 0.983932 0.379018
2.015641 1.654219 -1.695082 0.786004 0.175665 -0.592730 0.620983 0.258035
1.936844 1.809217 -1.667042 0.729820 0.433576 -0.528520 0.741966 0.258035
1.871321 1.956554 -1.659155 0.677389 0.560259 -0.476669 0.862949 0.258035
1.756069 2.060972 -1.643444 0.618885 0.672689 -0.405469 0.983932 0.258035
1.930059 1.646478 -1.801238 0.705252 0.116672 -0.699240 0.620983 0.137052
1.873722 1.795603 -1.773493 0.714469 0.374340 -0.591083 0.741966 0.137052
1.810111 1.928070 -1.750495 0.662831 0.532456 -0.526414 0.862949 0.137052
1.720699 2.025845 -1.732901 0.652364 0.610553 -0.448958 0.983932 0.137052
1.806491 1.639013 -1.877925 0.575854 -0.008759 -0.817469 0.620983 0.016069
1.803639 1.800285 -1.880110 0.678671 0.260994 -0.686483 0.741966 0.016069
1.739803 1.919991 -1.835634 0.686605 0.516617 -0.511521 0.862949 0.016069
1.695642 2.004904 -1.806147 0.704978 0.551164 -0.446272 0.983932 0.016069
1.162162 0.424145 -1.445769 -0.246223 -0.936613 -0.249214 0.500000 0.500000
1.373760 0.426454 -1.446198 0.266610 -0.929716 -0.253914 0.620983 0.500000
1.379642 0.455644 -1.301887 0.246040 -0.967650 0.055239 0.620983 0.620983
1.158307 0.406858 -1.297117 -0.198065 -0.979278 0.042085 0.500000 0.620983
1.376062 0.495774 -1.145267 0.196570 -0.936155 0.291452 0.620983 0.741966
1.159662 0.435069 -1.135920 -0.113865 -0.960570 0.253517 0.500000 0.741966
1.375689 0.561886 -0.990983 0.169622 -0.763543 0.623066 0.620983 0.862949
1.161908 0.504273 -0.964108 -0.073702 -0.781549 0.619434 0.500000 0.862949
1.382538 0.701694 -0.868942 0.098880 -0.567614 0.817316 0.620983 0.983932
1.170702 0.687376 -0.871298 -0.051851 -0.534135 0.843776 0.500000 0.983932
1.560727 0.563847 -1.436684 0.441237 -0.854549 -0.273904 0.741966 0.500000
1.589264 0.510850 -1.300891 0.418989 -0.906003 -0.059694 0.741966 0.620983
1.613008 0.510672 -1.136070 0.419111 -0.861812 0.285653 0.741966 0.741966
1.610513 0.601651 -0.998295 0.429456 -0.687857 0.585101 0.741966 0.862949
1.593530 0.728173 -0.889255 0.406415 -0.542955 0.734825 0.741966 0.983932
1.750437 0.642462 -1.438935 0.520829 -0.814203 -0.256447 0.862949 0.500000
1.764152 0.621969 -1.301892 0.650472 -0.758995 0.027314 0.862949 0.620983
1.747885 0.653914 -1.170186 0.752495 -0.575396 0.320383 0.862949 0.741966
1.733851 0.721951 -1.053491 0.784020 -0.418592 0.458296 0.862949 0.862949
1.722386 0.804000 -0.958990 0.769829 -0.365795 0.522996 0.862949 0.983932
1.902660 0.748323 -1.441609 0.798486 -0.571703 -0.188513 0.983932 0.500000
1.890820 0.758092 -1.315024 0.824427 -0.533097 0.189917 0.983932 0.620983
1.842881 0.806792 -1.198977 0.787225 -0.442244 0.429731 0.983932 0.741966
1.792536 0.858912 -1.099404 0.789453 -0.388531 0.475112 0.983932 0.862949
1.766475 0.887590 -1.026502 0.836848 -0.344127 0.425703 0.983932 0.983932
0.975739 0.537028 -1.305265 -0.405835 -0.912534 -0.050264 0.379018 0.620983
0.981720 0.561479 -1.436368 -0.360637 -0.911832 -0.196020 0.379018 0.500000
0.776771 0.580975 -1.301539 -0.220435 -0.974914 0.030580 0.258035 0.620983
0.783320 0.590494 -1.437358 -0.180792 -0.970763 -0.157720 0.258035 0.500000
0.562342 0.603898 -1.287387 -0.459243 -0.870937 0.174810 0.137052 0.620983
0.585290 0.636937 -1.439413 -0.405377 -0.900723 -0.155950 0.137052 0.500000
0.428921 0.741009 -1.298333 -0.806604 -0.554521 0.204566 0.016069 0.620983
0.438077 0.747690 -1.440290 -0.763329 -0.645802 -0.015107 0.016069 0.500000
0.963361 0.530716 -1.158624 -0.462630 -0.850917 0.248695 0.379018 0.741966
0.782501 0.602672 -1.163642 -0.379772 -0.767479 0.516404 0.258035 0.741966
0.614805 0.676072 -1.173116 -0.374279 -0.580309 0.723258 0.137052 0.741966
0.478439 0.790893 -1.186608 -0.589984 -0.445082 0.673635 0.016069 0.741966
0.967299 0.583618 -1.005010 -0.484939 -0.663228 0.569994 0.379018 0.862949
0.831153 0.729387 -1.075133 -0.562151 -0.550279 0.617359 0.258035 0.862949
0.700202 0.812469 -1.112941 -0.450545 -0.470687 0.758538 0.137052 0.862949
0.577588 0.884199 -1.121217 -0.363231 -0.492477 0.790857 0.016069 0.862949
0.974722 0.712178 -0.889421 -0.372326 -0.595935 0.711478 0.379018 0.983932
0.819315 0.806254 -0.955081 -0.596545 -0.663289 0.451796 0.258035 0.983932
0.709658 0.888254 -1.015853 -0.594684 -0.697592 0.399579 0.137052 0.983932
0.631930 0.937986 -1.061579 -0.473983 -0.717032 0.511002 0.016069 0.983932
0.986511 0.587777 -1.564310 -0.230903 -0.925260 -0.300943 0.379018 0.379018
1.166820 0.500494 -1.584030 -0.163671 -0.820704 -0.547349 0.500000 0.379018
0.990195 0.614037 -1.700089 -0.072573 -0.850032 -0.521653 0.379018 0.258035
1.172350 0.626426 -1.693462 0.020966 -0.753410 -0.657186 0.500000 0.258035
0.997398 0.700152 -1.812436 -0.032502 -0.706015 -0.707419 0.379018 0.137052
1.172925 0.720379 -1.800697 0.132450 -0.693808 -0.707846 0.500000 0.137052
1.003028 0.806436 -1.905851 -0.048036 -0.502335 -0.863308 0.379018 0.016069
1.174077 0.819762 -1.897594 0.159154 -0.483688 -0.860622 0.500000 0.016069
0.793358 0.604481 -1.566933 -0.193121 -0.964446 -0.180242 0.258035 0.379018
0.799677 0.622310 -1.699846 -0.218665 -0.843501 -0.490555 0.258035 0.258035
0.829870 0.734229 -1.793057 -0.264199 -0.592822 -0.760735 0.258035 0.137052
0.843788 0.834724 -1.881117 -0.317392 -0.453475 -0.832820 0.258035 0.016069
0.599963 0.663397 -1.563295 -0.416181 -0.871029 -0.260811 0.137052 0.379018
0.627403 0.694552 -1.691300 -0.429853 -0.672506 -0.602435 0.137052 0.258035
0.687221 0.795019 -1.770846 -0.414075 -0.440474 -0.796564 0.137052 0.137052
0.723979 0.896412 -1.834105 -0.422468 -0.407239 -0.809717 0.137052 0.016069
0.431532 0.745353 -1.565744 -0.668020 -0.689871 -0.278878 0.016069 0.379018
0.504378 0.812038 -1.668202 -0.502426 -0.508774 -0.699057 0.016069 0.258035
0.588054 0.892565 -1.753738 -0.461654 -0.416364 -0.783227 0.016069 0.137052
0.635118 0.940789 -1.813825 -0.421461 -0.460219 -0.781365 0.016069 0.016069
1.365010 0.513689 -1.576785 0.227119 -0.769189 -0.597247 0.620983 0.379018
1.551935 0.589860 -1.561497 0.395062 -0.758843 -0.517716 0.741966 0.379018
1.721037 0.676360 -1.557606 0.454939 -0.718558 -0.525986 0.862949 0.379018
1.860834 0.789378 -1.557391 0.671865 -0.513382 -0.533860 0.983932 0.379018
1.350253 0.634913 -1.687263 0.185186 -0.662770 -0.725547 0.620983 0.258035
1.519132 0.679021 -1.669367 0.324503 -0.606616 -0.725700 0.741966 0.258035
1.664298 0.758791 -1.657552 0.396039 -0.553423 -0.732688 0.862949 0.258035
1.786885 0.865250 -1.656613 0.533311 -0.496323 -0.684988 0.983932 0.258035
1.336883 0.739830 -1.788424 0.228553 -0.611591 -0.757408 0.620983 0.137052
1.485062 0.788849 -1.758484 0.323374 -0.538438 -0.778130 0.741966 0.137052
1.614240 0.848426 -1.739236 0.369793 -0.520737 -0.769433 0.862949 0.137052
1.727981 0.925869 -1.736791 0.428816 -0.542528 -0.722312 0.983932 0.137052
1.328563 0.859980 -1.863279 0.250160 -0.465163 -0.849117 0.620983 0.016069
1.470819 0.896730 -1.835722 0.302683 -0.480148 -0.823267 0.741966 0.016069
1.593862 0.936348 -1.809019 0.334819 -0.506149 -0.794794 0.862949 0.016069
1.683618 0.969779 -1.789524 0.343760 -0.538560 -0.769250 0.983932 0.016069
1.174603 1.475216 -2.106174 0.147832 0.000855 -0.988983 0.500000 0.500000
1.168981 1.292513 -2.085771 0.174993 -0.227882 -0.957823 0.620983 0.500000
0.984602 1.288410 -2.102191 -0.067721 -0.175695 -0.982086 0.620983 0.620983
0.983653 1.473004 -2.117022 -0.092807 -0.002838 -0.995666 0.500000 0.620983
0.817824 1.295161 -2.056208 -0.391980 -0.125645 -0.911344 0.620983 0.741966
0.810631 1.474715 -2.065183 -0.395367 -0.026154 -0.918119 0.500000 0.741966
0.668392 1.305924 -1.967236 -0.510941 -0.104343 -0.853236 0.620983 0.862949
0.660771 1.478325 -1.969944 -0.497604 -0.058016 -0.865444 0.500000 0.862949
0.527757 1.311995 -1.880593 -0.397412 -0.093539 -0.912839 0.620983 0.983932
0.512986 1.482804 -1.888755 -0.400678 -0.068514 -0.913633 0.500000 0.983932
1.169423 1.125993 -2.016813 0.184332 -0.394269 -0.900296 0.741966 0.500000
0.989209 1.114368 -2.055557 -0.015351 -0.404553 -0.914365 0.741966 0.620983
0.823983 1.124653 -2.030351 -0.360332 -0.365612 -0.858150 0.741966 0.741966
0.685807 1.151474 -1.941971 -0.466231 -0.287301 -0.836665 0.741966 0.862949
0.545057 1.153378 -1.874291 -0.392834 -0.268777 -0.879421 0.741966 0.983932
1.171245 0.979239 -1.942611 0.160955 -0.382641 -0.909757 0.862949 0.500000
1.004845 0.967518 -1.955996 -0.013398 -0.419843 -0.907468 0.862949 0.620983
0.846071 0.981511 -1.939130 -0.326121 -0.435286 -0.839137 0.862949 0.741966
0.720193 1.021051 -1.884145 -0.405713 -0.415021 -0.814295 0.862949 0.862949
0.585816 1.022384 -1.854046 -0.396222 -0.448714 -0.801019 0.862949 0.983932
1.174077 0.819762 -1.897594 0.159154 -0.483688 -0.860622 0.983932 0.500000
1.003028 0.806436 -1.905851 -0.048036 -0.502335 -0.863308 0.983932 0.620983
0.843788 0.834724 -1.881117 -0.317392 -0.453475 -0.832820 0.983932 0.741966
0.723979 0.896412 -1.834105 -0.422468 -0.407239 -0.809717 0.983932 0.862949
0.635118 0.940789 -1.813825 -0.421461 -0.460219 -0.781365 0.983932 0.983932
0.984119 1.659876 -2.101207 -0.040284 0.194647 -0.980041 0.379018 0.620983
1.174184 1.656648 -2.079890 0.153417 0.247902 -0.956542 0.379018 0.500000
0.990660 1.845588 -2.035902 0.018342 0.347453 -0.937498 0.258035 0.620983
1.167805 1.830746 -2.009489 0.163152 0.344768 -0.924375 0.258035 0.500000
0.997500 2.003062 -1.967712 0.005158 0.449385 -0.893307 0.137052 0.620983
1.167228 1.992562 -1.956643 0.142399 0.394696 -0.907682 0.137052 0.500000
1.002987 2.129573 -1.888524 -0.039430 0.590258 -0.806238 0.016069 0.620983
1.170036 2.129904 -1.889369 0.089846 0.537736 -0.838282 0.016069 0.500000
0.803196 1.657477 -2.062901 -0.326884 0.086734 -0.941069 0.379018 0.741966
0.808932 1.842730 -2.027297 -0.197790 0.277627 -0.940092 0.258035 0.741966
0.825223 1.997844 -1.955367 -0.119785 0.477279 -0.870510 0.137052 0.741966
0.838909 2.118834 -1.877472 -0.177465 0.654714 -0.734703 0.016069 0.741966
0.648246 1.653115 -1.972661 -0.429914 -0.033937 -0.902219 0.379018 0.862949
0.628048 1.843524 -1.976029 -0.343272 0.182989 -0.921201 0.258035 0.862949
0.647461 2.000687 -1.930395 -0.321909 0.528459 -0.785516 0.137052 0.862949
0.689063 2.098378 -1.857354 -0.413465 0.753105 -0.511704 0.016069 0.862949
0.489380 1.654548 -1.904925 -0.481460 -0.021149 -0.876186 0.379018 0.983932
0.471203 1.841843 -1.918389 -0.674184 0.288552 -0.679830 0.258035 0.983932
0.536293 1.981962 -1.872081 -0.691183 0.613422 -0.382000 0.137052 0.983932
0.608083 2.049011 -1.825447 -0.651143 0.740135 -0.167791 0.016069 0.983932
1.352049 1.652208 -2.044494 0.190069 0.216346 -0.957610 0.379018 0.379018
1.356809 1.478081 -2.070199 0.269570 -0.034669 -0.962340 0.500000 0.379018
1.521911 1.651735 -2.011083 0.230628 0.072024 -0.970336 0.379018 0.258035
1.519614 1.479873 -2.005044 0.347850 -0.089694 -0.933226 0.500000 0.258035
1.675661 1.647267 -1.957583 0.404706 -0.050295 -0.913053 0.379018 0.137052
1.667146 1.479274 -1.939411 0.412610 -0.107089 -0.904569 0.500000 0.137052
1.806491 1.639013 -1.877925 0.575854 -0.008759 -0.817469 0.379018 0.016069
1.336756 1.812690 -1.979815 0.131382 0.337321 -0.932157 0.258035 0.379018
1.513011 1.814540 -1.982802 0.068239 0.267586 -0.961089 0.258035 0.258035
1.688528 1.823251 -1.976428 0.398053 0.229621 -0.888119 0.258035 0.137052
1.803639 1.800285 -1.880110 0.678671 0.260994 -0.686483 0.258035 0.016069
1.330536 1.966355 -1.931400 0.146245 0.383831 -0.911740 0.137052 0.379018
1.488648 1.951547 -1.915651 0.032472 0.426069 -0.904080 0.137052 0.258035
1.654244 1.963238 -1.927584 0.360851 0.517167 -0.776086 0.137052 0.137052
1.739803 1.919991 -1.835634 0.686605 0.516617 -0.511521 0.137052 0.016069
1.329137 2.099564 -1.866541 0.143712 0.468642 -0.871609 0.016069 0.379018
1.485642 2.079581 -1.854835 0.132664 0.498795 -0.856471 0.016069 0.258035
1.626955 2.063674 -1.850010 0.428510 0.584674 -0.688803 0.016069 0.137052
1.347381 1.302149 -2.036136 0.283914 -0.237648 -0.928892 0.620983 0.379018
1.337375 1.141239 -1.984612 0.240303 -0.346629 -0.906674 0.741966 0.379018
1.329736 0.996870 -1.924602 0.218696 -0.384777 -0.896695 0.862949 0.379018
1.328563 0.859980 -1.863279 0.250160 -0.465163 -0.849117 0.983932 0.379018
1.506111 1.313480 -1.978564 0.343150 -0.199957 -0.917722 0.620983 0.258035
1.491929 1.158176 -1.946070 0.294198 -0.288339 -0.911191 0.741966 0.258035
1.477473 1.018006 -1.898761 0.273812 -0.396435 -0.876247 0.862949 0.258035
1.470819 0.896730 -1.835722 0.302683 -0.480148 -0.823267 0.983932 0.258035
1.653053 1.320540 -1.923122 0.376232 -0.146855 -0.914792 0.620983 0.137052
1.635952 1.170689 -1.901703 0.323649 -0.239357 -0.915372 0.741966 0.137052
1.609813 1.041603 -1.864118 0.303415 -0.405194 -0.862392 0.862949 0.137052
1.593862 0.936348 -1.809019 0.334819 -0.506149 -0.794794 0.983932 0.137052
1.787730 1.319743 -1.860872 0.495132 -0.105411 -0.862362 0.620983 0.016069
1.774692 1.166625 -1.854533 0.444044 -0.209021 -0.871273 0.741966 0.016069
1.733638 1.044026 -1.825690 0.367595 -0.434187 -0.822382 0.862949 0.016069
1.182170 1.476678 -0.672378 0.324717 -0.038667 0.945006 0.500000 0.500000
1.176163 1.273914 -0.730394 0.174291 -0.120518 0.977264 0.620983 0.500000
1.375900 1.288772 -0.759133 0.200568 0.054567 0.978149 0.620983 0.620983
1.374563 1.479900 -0.770675 0.361339 0.114444 0.925352 0.500000 0.620983
1.565446 1.298445 -0.794205 0.249916 0.176489 0.952025 0.620983 0.741966
1.542583 1.480016 -0.837978 0.253975 0.179144 0.950438 0.500000 0.741966
1.753047 1.300374 -0.843304 0.373760 0.101840 0.921903 0.620983 0.862949
1.709001 1.483040 -0.891132 0.215461 0.107273 0.970580 0.500000 0.862949
1.903961 1.304829 -0.916710 0.715812 -0.065249 0.695212 0.620983 0.983932
1.182584 1.070007 -0.734393 0.039369 -0.111576 0.992950 0.741966 0.500000
1.388388 1.078086 -0.738953 0.079226 -0.028016 0.996460 0.741966 0.620983
1.598885 1.076432 -0.758355 0.310617 -0.044008 0.949492 0.741966 0.741966
1.758984 1.100430 -0.840765 0.589221 -0.168828 0.790094 0.741966 0.862949
1.861604 1.123354 -0.952575 0.761376 -0.286782 0.581378 0.741966 0.983932
1.179950 0.868742 -0.783699 -0.027833 -0.355266 0.934324 0.862949 0.500000
1.393948 0.855041 -0.758800 0.061464 -0.351421 0.934172 0.862949 0.620983
1.600394 0.872943 -0.801886 0.394421 -0.352397 0.848659 0.862949 0.741966
1.723467 0.934065 -0.893093 0.713523 -0.337626 0.613849 0.862949 0.862949
1.803583 0.983018 -0.999782 0.767205 -0.409925 0.493271 0.862949 0.983932
1.170702 0.687376 -0.871298 -0.051851 -0.534135 0.843776 0.983932 0.500000
1.382538 0.701694 -0.868942 0.098880 -0.567614 0.817316 0.983932 0.620983
1.593530 0.728173 -0.889255 0.406415 -0.542955 0.734825 0.983932 0.741966
1.722386 0.804000 -0.958990 0.769829 -0.365795 0.522996 0.983932 0.862949
1.351658 1.656882 -0.830189 0.406568 0.234169 0.883053 0.379018 0.620983
1.193101 1.691429 -0.683626 0.391003 0.257424 0.883633 0.379018 0.500000
1.343546 1.834301 -0.865171 0.340342 0.251442 0.906034 0.258035 0.620983
1.177325 1.875617 -0.782081 0.352550 0.364818 0.861721 0.258035 0.500000
1.345899 1.996796 -0.904378 0.257149 0.391797 0.883358 0.137052 0.620983
1.182154 2.049448 -0.854635 0.273934 0.491195 0.826838 0.137052 0.500000
1.341488 2.131813 -0.981336 0.212226 0.640339 0.738151 0.016069 0.620983
1.177523 2.170763 -0.958377 0.174780 0.727928 0.662954 0.016069 0.500000
1.531540 1.654287 -0.857660 0.183508 0.162694 0.969451 0.379018 0.741966
1.515296 1.818175 -0.892100 0.118503 0.185644 0.975433 0.258035 0.741966
1.514425 1.987205 -0.912597 0.166295 0.410138 0.896695 0.137052 0.741966
1.498572 2.102725 -0.996069 0.260567 0.645344 0.718040 0.016069 0.741966
1.705042 1.660987 -0.883199 0.155370 0.112705 0.981384 0.379018 0.862949
1.692373 1.830232 -0.900610 0.252876 0.304361 0.918332 0.258035 0.862949
1.667320 1.971234 -0.939548 0.421552 0.519700 0.743065 0.137052 0.862949
1.628789 2.059277 -1.029482 0.468825 0.654286 0.593341 0.016069 0.862949
1.908857 1.696441 -0.900450 0.626576 0.292489 0.722373 0.379018 0.983932
1.820392 1.832505 -0.969949 0.645375 0.528886 0.551103 0.258035 0.983932
1.752687 1.933718 -1.026575 0.695730 0.534165 0.480209 0.137052 0.983932
0.989453 1.693053 -0.662885 -0.068178 0.303049 0.950530 0.379018 0.379018
0.980949 1.483904 -0.618411 0.012207 -0.018036 0.999756 0.500000 0.379018
0.779048 1.676218 -0.742478 -0.387494 0.327097 0.861843 0.379018 0.258035
0.748926 1.488835 -0.660229 -0.374065 0.087558 0.923246 0.500000 0.258035
0.591544 1.666105 -0.832803 -0.472213 0.267159 0.839991 0.379018 0.137052
0.569527 1.481791 -0.798948 -0.571917 0.079196 0.816462 0.500000 0.137052
0.431571 1.659300 -0.921845 -0.569079 0.200079 0.797540 0.379018 0.016069
0.417902 1.476391 -0.907687 -0.631581 -0.020814 0.775018 0.500000 0.016069
0.987205 1.897083 -0.734700 -0.090762 0.410199 0.907437 0.258035 0.379018
0.799767 1.857973 -0.812209 -0.334635 0.317209 0.887326 0.258035 0.258035
0.620279 1.838222 -0.876970 -0.414869 0.253212 0.873897 0.258035 0.137052
0.464589 1.830180 -0.945538 -0.607349 0.347942 0.714164 0.258035 0.016069
0.992509 2.071469 -0.837830 -0.024812 0.520127 0.853694 0.137052 0.379018
0.802835 2.047904 -0.878211 -0.211768 0.405377 0.889248 0.137052 0.258035
0.607414 2.040402 -0.893548 -0.495285 0.378643 0.781823 0.137052 0.137052
0.524032 1.976600 -0.989130 -0.738090 0.430708 0.519272 0.137052 0.016069
0.995911 2.193772 -0.946214 0.025513 0.790521 0.611866 0.016069 0.379018
0.803857 2.203199 -0.942843 -0.149754 0.785821 0.600024 0.016069 0.258035
0.642048 2.153848 -0.969289 -0.496109 0.698416 0.515763 0.016069 0.137052
0.573407 2.079887 -1.019820 -0.784204 0.538682 0.307871 0.016069 0.016069
0.975564 1.273037 -0.691474 0.069765 -0.206977 0.975829 0.620983 0.379018
0.973122 1.065197 -0.733456 0.019044 -0.216712 0.976043 0.741966 0.379018
0.967099 0.861286 -0.773357 -0.152379 -0.471999 0.868282 0.862949 0.379018
0.974722 0.712178 -0.889421 -0.372326 -0.595935 0.711478 0.983932 0.379018
0.757058 1.267520 -0.685040 -0.297159 -0.164403 0.940550 0.620983 0.258035
0.759760 1.054852 -0.722911 -0.312235 -0.334330 0.889218 0.741966 0.258035
0.781466 0.898079 -0.818739 -0.453139 -0.615406 0.644887 0.862949 0.258035
0.819315 0.806254 -0.955081 -0.596545 -0.663289 0.451796 0.983932 0.258035
0.575897 1.272103 -0.804266 -0.609790 -0.116092 0.783990 0.620983 0.137052
0.588184 1.084736 -0.826602 -0.621632 -0.394513 0.676656 0.741966 0.137052
0.655517 0.960055 -0.914013 -0.594409 -0.700736 0.394452 0.862949 0.137052
0.709658 0.888254 -1.015853 -0.594684 -0.697592 0.399579 0.983932 0.137052
0.440310 1.290231 -0.926152 -0.710074 -0.180792 0.680471 0.620983 0.016069
0.466723 1.105843 -0.943657 -0.711386 -0.413709 0.568072 0.741966 0.016069
0.556578 0.995712 -1.006886 -0.534745 -0.703665 0.467849 0.862949 0.016069
0.631930 0.937986 -1.061579 -0.473983 -0.717032 0.511002 0.983932 0.016069
4 0 1 2 3
4 3 2 4 5
4 5 4 6 7
4 7 6 8 9
4 1 10 11 2
4 2 11 12 4
4 4 12 13 6
4 6 13 14 8
4 10 15 16 11
4 11 16 17 12
4 12 17 18 13
4 13 18 19 14
4 15 20 21 16
4 16 21 22 17
4 17 22 23 18
4 18 23 24 19
4 0 3 25 26
4 26 25 27 28
4 28 27 29 30
4 30 29 31 32
4 3 5 33 25
4 25 33 34 27
4 27 34 35 29
4 29 35 36 31
4 5 7 37 33
4 33 37 38 34
4 34 38 39 35
4 35 39 40 36
4 7 9 41 37
4 37 41 42 38
4 38 42 43 39
4 39 43 44 40
4 0 26 45 46
4 46 45 47 48
4 48 47 49 50
4 50 49 51 52
4 26 28 53 45
4 45 53 54 47
4 47 54 55 49
4 49 55 56 51
4 28 30 57 53
4 53 57 58 54
4 54 58 59 55
4 55 59 60 56
4 30 32 61 57
4 57 61 62 58
4 58 62 63 59
4 59 63 64 60
4 0 46 65 1
4 1 65 66 10
4 10 66 67 15
4 15 67 68 20
4 46 48 69 65
4 65 69 70 66
4 66 70 71 67
4 67 71 72 68
4 48 50 73 69
4 69 73 74 70
4 70 74 75 71
4 71 75 76 72
4 50 52 77 73
4 73 77 78 74
4 74 78 79 75
4 75 79 80 76
4 81 82 83 84
4 84 83 85 86
4 86 85 87 88
4 88 87 89 90
4 82 91 92 83
4 83 92 93 85
4 85 93 94 87
4 87 94 95 89
4 91 96 97 92
4 92 97 98 93
4 93 98 99 94
4 94 99 100 95
4 96 101 102 97
4 97 102 103 98
4 98 103 104 99
4 99 104 105 100
4 81 84 106 107
4 107 106 108 109
4 109 108 110 111
4 111 110 112 113
4 84 86 114 106
4 106 114 115 108
4 108 115 116 110
4 110 116 117 112
4 86 88 118 114
4 114 118 119 115
4 115 119 120 116
4 116 120 121 117
4 88 90 122 118
4 118 122 123 119
4 119 123 124 120
4 120 124 125 121
4 81 107 126 127
4 127 126 128 129
4 129 128 130 131
4 131 130 132 133
4 107 109 134 126
4 126 134 135 128
4 128 135 136 130
4 130 136 137 132
4 109 111 138 134
4 134 138 139 135
4 135 139 140 136
4 136 140 141 137
4 111 113 142 138
4 138 142 143 139
4 139 143 144 140
4 140 144 145 141
4 81 127 146 82
4 82 146 147 91
4 91 147 148 96
4 96 148 149 101
4 127 129 150 146
4 146 150 151 147
4 147 151 152 148
4 148 152 153 149
4 129 131 154 150
4 150 154 155 151
4 151 155 156 152
4 152 156 157 153
4 131 133 158 154
4 154 158 159 155
4 155 159 160 156
4 156 160 161 157
4 162 163 164 165
4 165 164 166 167
4 167 166 168 169
4 169 168 170 171
4 163 172 173 164
4 164 173 174 166
4 166 174 175 168
4 168 175 176 170
4 172 177 178 173
4 173 178 179 174
4 174 179 180 175
4 175 180 181 176
4 177 182 183 178
4 178 183 184 179
4 179 184 185 180
4 180 185 186 181
4 162 165 187 188
4 188 187 189 190
4 190 189 191 192
4 192 191 193 194
4 165 167 195 187
4 187 195 196 189
4 189 196 197 191
4 191 197 198 193
4 167 169 199 195
4 195 199 200 196
4 196 200 201 197
4 197 201 202 198
4 169 171 203 199
4 199 203 204 200
4 200 204 205 201
4 201 205 206 202
4 162 188 207 208
4 208 207 209 210
4 210 209 211 212
4 212 211 213 214
4 188 190 215 207
4 207 215 216 209
4 209 216 217 211
4 211 217 218 213
4 190 192 219 215
4 215 219 220 216
4 216 220 221 217
4 217 221 222 218
4 192 194 223 219
4 219 223 224 220
4 220 224 225 221
4 221 225 226 222
4 162 208 227 163
4 163 227 228 172
4 172 228 229 177
4 177 229 230 182
4 208 210 231 227
4 227 231 232 228
4 228 232 233 229
4 229 233 234 230
4 210 212 235 231
4 231 235 236 232
4 232 236 237 233
4 233 237 238 234
4 212 214 239 235
4 235 239 240 236
4 236 240 241 237
4 237 241 242 238
4 243 244 245 246
4 246 245 247 248
4 248 247 249 250
4 250 249 251 252
4 244 253 254 245
4 245 254 255 247
4 247 255 256 249
4 249 256 257 251
4 253 258 259 254
4 254 259 260 255
4 255 260 261 256
4 256 261 262 257
4 258 263 264 259
4 259 264 265 260
4 260 265 266 261
4 261 266 267 262
4 243 246 268 269
4 269 268 270 271
4 271 270 272 273
4 273 272 274 275
4 246 248 276 268
4 268 276 277 270
4 270 277 278 272
4 272 278 279 274
4 248 250 280 276
4 276 280 281 277
4 277 281 282 278
4 278 282 283 279
4 250 252 284 280
4 280 284 285 281
4 281 285 286 282
4 282 286 287 283
4 243 269 288 289
4 289 288 290 291
4 291 290 292 293
4 293 292 294 295
4 269 271 296 288
4 288 296 297 290
4 290 297 298 292
4 292 298 299 294
4 271 273 300 296
4 296 300 301 297
4 297 301 302 298
4 298 302 303 299
4 273 275 304 300
4 300 304 305 301
4 301 305 306 302
4 302 306 307 303
4 243 289 308 244
4 244 308 309 253
4 253 309 310 258
4 258 310 311 263
4 289 291 312 308
4 308 312 313 309
4 309 313 314 310
4 310 314 315 311
4 291 293 316 312
4 312 316 317 313
4 313 317 318 314
4 314 318 319 315
4 293 295 320 316
4 316 320 321 317
4 317 321 322 318
4 318 322 323 319
4 324 325 326 327
4 327 326 328 329
4 329 328 330 331
4 331 330 332 333
4 325 334 335 326
4 326 335 336 328
4 328 336 337 330
4 330 337 338 332
4 334 339 340 335
4 335 340 341 336
4 336 341 342 337
4 337 342 343 338
4 339 344 345 340
4 340 345 346 341
4 341 346 347 342
4 342 347 348 343
4 324 327 349 350
4 350 349 351 352
4 352 351 353 354
4 354 353 355 356
4 327 329 357 349
4 349 357 358 351
4 351 358 359 353
4 353 359 360 355
4 329 331 361 357
4 357 361 362 358
4 358 362 363 359
4 359 363 364 360
4 331 333 365 361
4 361 365 366 362
4 362 366 367 363
4 363 367 368 364
4 324 350 369 370
4 370 369 371 372
4 372 371 373 374
4 374 373 375 214
4 350 352 376 369
4 369 376 377 371
4 371 377 378 373
4 373 378 379 375
4 352 354 380 376
4 376 380 381 377
4 377 381 382 378
4 378 382 383 379
4 354 356 384 380
4 380 384 385 381
4 381 385 386 382
4 382 386 145 383
4 324 370 387 325
4 325 387 388 334
4 334 388 389 339
4 339 389 390 344
4 370 372 391 387
4 387 391 392 388
4 388 392 393 389
4 389 393 394 390
4 372 374 395 391
4 391 395 396 392
4 392 396 397 393
4 393 397 398 394
4 374 214 399 395
4 395 399 400 396
4 396 400 401 397
4 397 401 323 398
4 402 403 404 405
4 405 404 406 407
4 407 406 408 409
4 409 408 410 171
4 403 411 412 404
4 404 412 413 406
4 406 413 414 408
4 408 414 415 410
4 411 416 417 412
4 412 417 418 413
4 413 418 419 414
4 414 419 420 415
4 416 421 422 417
4 417 422 423 418
4 418 423 424 419
4 419 424 267 420
4 402 405 425 426
4 426 425 427 428
4 428 427 429 430
4 430 429 431 432
4 405 407 433 425
4 425 433 434 427
4 427 434 435 429
4 429 435 436 431
4 407 409 437 433
4 433 437 438 434
4 434 438 439 435
4 435 439 440 436
4 409 171 441 437
4 437 441 442 438
4 438 442 443 439
4 439 443 125 440
4 402 426 444 445
4 445 444 446 447
4 447 446 448 449
4 449 448 450 451
4 426 428 452 444
4 444 452 453 446
4 446 453 454 448
4 448 454 455 450
4 428 430 456 452
4 452 456 457 453
4 453 457 458 454
4 454 458 459 455
4 430 432 460 456
4 456 460 461 457
4 457 461 462 458
4 458 462 463 459
4 402 445 464 403
4 403 464 465 411
4 411 465 466 416
4 416 466 467 421
4 445 447 468 464
4 464 468 469 465
4 465 469 470 466
4 466 470 471 467
4 447 449 472 468
4 468 472 473 469
4 469 473 474 470
4 470 474 475 471
4 449 451 476 472
4 472 476 477 473
4 473 477 478 474
4 474 478 479 475
